<svg xmlns="http://www.w3.org/2000/svg" width="32" height="32" viewBox="0 0 32 32">
  <rect width="32" height="32" rx="7" fill="#3f8676"/>
  <svg x="6" y="6" width="20" height="20" viewBox="0 -960 960 960">
    <path fill="#fff" d="M200-120q-33 0-56.5-23.5T120-200q0-33 23.5-56.5T200-280q33 0 56.5 23.5T280-200q0 33-23.5 56.5T200-120Zm480 0q0-117-44-218.5T516-516q-76-76-177.5-120T120-680v-120q142 0 265 53t216 146q93 93 146 216t53 265H680Zm-240 0q0-67-25-124.5T346-346q-44-44-101.5-69T120-440v-120q92 0 171.5 34.5T431-431q60 60 94.5 139.5T560-120H440Z"/>
  </svg>
</svg>
